<svg xmlns="http://www.w3.org/2000/svg" xmlns:xlink="http://www.w3.org/1999/xlink" width="31" height="28" viewBox="0 0 31 28"><defs><path id="n7yxa" d="M60 4093.4c0-1.1.9-2 2-2h5.75v-6.4c0-1.1.9-2 2-2h12.2a2 2 0 0 1 2 2v6.4H89a2 2 0 0 1 2 2v12.8a2 2 0 0 1-2 2h-5.05v.8a2 2 0 0 1-2 2h-12.9a2 2 0 0 1-2-2v-.8H62a2 2 0 0 1-2-2zm28.18 12v-11.2H62.82v11.2h4.23v-2.8h-.01a1.4 1.4 0 1 1 0-2.8h16.92a1.4 1.4 0 1 1 0 2.8h-.01v2.8zm-7.04 2.8v-5.6H69.86v5.6zm0-16.8v-5.6H70.57v5.6z"/></defs><g><g transform="translate(-60 -4083)"><use fill="#fff" xlink:href="#n7yxa"/></g></g></svg>