<svg xmlns="http://www.w3.org/2000/svg" xmlns:xlink="http://www.w3.org/1999/xlink" width="26" height="23" viewBox="0 0 26 23"><defs><path id="iqt3a" d="M82.12 3919.86H77.6a1.6 1.6 0 0 0-1.06.42 1.35 1.35 0 0 0-.37.47l-.08.15c0 .02-.03.03-.03.05a3.25 3.25 0 0 1-3.06 2.2c-1.38 0-2.6-.88-3.06-2.2-.01-.02-.03-.03-.03-.05l-.08-.15a1.63 1.63 0 0 0-.37-.47c-.1-.09-.2-.16-.32-.22-.05-.04-.1-.06-.17-.09a1.6 1.6 0 0 0-.57-.11h-4.52l2.17-6.57h13.9zm-18.86 9.85l-.01.02v-6.59h4.13a6.47 6.47 0 0 0 11.24 0h4.13v6.58h-.01zm19.49.02v-.01zm-.01 3.27c1.8 0 3.25-1.46 3.26-3.27v-8.23c0-.18-.03-.35-.08-.52l-3-9.08a2.84 2.84 0 0 0-2.62-1.9H65.7a2.83 2.83 0 0 0-2.62 1.9l-3 9.08c-.05.17-.08.34-.08.52v8.23a3.27 3.27 0 0 0 3.26 3.27z"/></defs><g><g transform="translate(-60 -3910)"><use fill="#fff" xlink:href="#iqt3a"/></g></g></svg>