<svg xmlns="http://www.w3.org/2000/svg" xmlns:xlink="http://www.w3.org/1999/xlink" width="26" height="23" viewBox="0 0 26 23"><defs><path id="8bfga" d="M80.52 3981.29l-7.53 7.85-7.53-7.85zm2.23 16.42h-19.5v-13.99l8.01 8.34a2.42 2.42 0 0 0 3.45 0l8.04-8.36zm-.01 3.29c.86 0 1.7-.34 2.3-.96a3.3 3.3 0 0 0 .96-2.33v-16.42a3.28 3.28 0 0 0-3.26-3.29H63.26c-.86 0-1.7.34-2.3.96a3.3 3.3 0 0 0-.96 2.33v16.42a3.28 3.28 0 0 0 3.26 3.29z"/></defs><g><g transform="translate(-60 -3978)"><use fill="#fff" xlink:href="#8bfga"/></g></g></svg>