<svg xmlns="http://www.w3.org/2000/svg" xmlns:xlink="http://www.w3.org/1999/xlink" width="29" height="29" viewBox="0 0 29 29"><defs><path id="h5z1a" d="M66.22 4031.07l-2.47 2.47c-1 1-1.18 3.02-.56 4.3l.37.74c.26.47.61 1.04 1.06 1.7a46.1 46.1 0 0 0 5.57 6.58 45.64 45.64 0 0 0 6.55 5.54c.65.44 1.21.78 1.68 1.03l.77.4c1.17.6 3.24.42 4.27-.6l2.46-2.47-3.94-3.94-.49.5c-1.9 1.9-5 1.9-6.9 0l-4.92-4.92c-1.9-1.9-1.9-5 0-6.9l.49-.49-3.94-3.94zm6.9 2.95a1.4 1.4 0 0 1 0 1.98l-1.48 1.47a2.1 2.1 0 0 0 0 2.96l4.92 4.91c.82.83 2.14.82 2.96 0l1.48-1.47a1.4 1.4 0 0 1 1.97 0l5.42 5.41c.81.82.82 2.14 0 2.96l-2.96 2.95a6.65 6.65 0 0 1-7.67 1.02s-3.7-1.55-9.54-7.38c-5.83-5.83-7.45-9.6-7.45-9.6a6.7 6.7 0 0 1 1.01-7.66l2.96-2.95a2.1 2.1 0 0 1 2.96 0l5.41 5.4z"/></defs><g><g transform="translate(-60 -4028)"><use fill="#fff" xlink:href="#h5z1a"/></g></g></svg>